<svg
            width="70"
            height="70"
            viewBox="0 0 40 40"
            fill="none"
            xmlns="http://www.w3.org/2000/svg"
          >
            <path
              fill-rule="evenodd"
              clip-rule="evenodd"
              d="M27.332 24.3136C27.332 25.601 26.6439 26.9933 25.7953 26.9933C25.1199 26.9933 24.5466 26.4013 24.3403 25.4831C23.1249 26.3761 21.6105 27.002 19.9679 27.002C15.9656 27.002 12.7212 23.9156 12.7212 20.0354C12.7212 16.1553 15.9656 12.9506 19.9679 12.9506C21.6198 12.9506 23.1417 13.4283 24.3606 14.3305C24.5823 13.4567 25.1408 12.9506 25.7953 12.9506C26.6439 12.9506 27.332 14.4348 27.332 15.7216V24.3136Z"
              fill="white"
            />
            <path
              fill-rule="evenodd"
              clip-rule="evenodd"
              d="M19.9678 16.1011C17.7266 16.1011 15.9097 17.8626 15.9097 20.0355C15.9097 22.2084 17.7266 23.9699 19.9678 23.9699C22.2091 23.9699 24.026 22.2084 24.026 20.0355C24.026 17.8626 22.2091 16.1011 19.9678 16.1011"
              fill="#0061A1"
            />
            <path
              fill-rule="evenodd"
              clip-rule="evenodd"
              d="M27.3321 24.3136C27.3321 25.601 26.644 26.9933 25.7953 26.9933C25.1199 26.9933 24.5466 26.4013 24.3404 25.4831C23.1249 26.3761 21.6106 27.002 19.968 27.002C15.9656 27.002 12.7212 23.9156 12.7212 20.0354C12.7212 16.1553 15.9656 12.9506 19.968 12.9506C21.6199 12.9506 23.1417 13.4283 24.3606 14.3305C24.5823 13.4567 25.1409 12.9506 25.7953 12.9506C26.644 12.9506 27.3321 14.4348 27.3321 15.7215V24.3136ZM26.5457 11.0071H13.4541C13.4541 11.0071 10.7241 11.0071 10.7241 13.6627V26.3373C10.7241 26.3373 10.7241 28.9928 13.4541 28.9928H26.5457C26.5457 28.9928 29.2758 28.9928 29.2758 26.3373V13.6627C29.2758 13.6627 29.2758 11.0071 26.5457 11.0071V11.0071Z"
              fill="#0061A1"
            />
            <path
              fill-rule="evenodd"
              clip-rule="evenodd"
              d="M21.8519 20.0353C21.8519 21.0442 21.0082 21.862 19.9677 21.862C18.9271 21.862 18.0835 21.0442 18.0835 20.0353C18.0835 19.0265 18.9271 18.2086 19.9677 18.2086C21.0082 18.2086 21.8519 19.0265 21.8519 20.0353"
              fill="#FCB833"
            />
            <rect
              x="1"
              y="1"
              width="38"
              height="38"
              rx="19"
              stroke="#0061A1"
              stroke-width="2"
            />
          </svg>